<svg width="1028" height="105" viewBox="0 0 1028 105" fill="none" xmlns="http://www.w3.org/2000/svg">
<path d="M7.37415 78H17.2063C21.2622 78 24.5806 81.324 24.5806 85.3869V95.2359C24.5806 99.2988 21.2622 102.623 17.2063 102.623H7.37415C3.31837 102.623 0 99.2988 0 95.2359V85.3869C0 81.324 3.31837 78 7.37415 78Z" fill="#2F54EB"/>
<path d="M123.648 40.086H103.013V20.961C103.013 18.921 102.708 17.646 102.096 17.136C101.587 16.524 100.313 16.218 98.2751 16.218H68.3162C66.2782 16.218 64.9535 16.524 64.3421 17.136C63.8326 17.646 63.5778 18.921 63.5778 20.961V88.587C63.5778 90.627 63.8326 91.953 64.3421 92.565C64.9535 93.075 66.2782 93.33 68.3162 93.33H98.2751C100.313 93.33 101.587 93.075 102.096 92.565C102.708 91.953 103.013 90.627 103.013 88.587V69.462H123.648V90.27C123.648 98.328 119.623 102.357 111.573 102.357H55.0181C46.968 102.357 42.9429 98.328 42.9429 90.27V19.278C42.9429 11.22 46.968 7.191 55.0181 7.191H111.573C119.623 7.191 123.648 11.22 123.648 19.278V40.086ZM199.014 88.587V41.922C199.014 39.984 198.708 38.709 198.097 38.097C197.587 37.485 196.313 37.179 194.275 37.179H167.526C165.59 37.179 164.316 37.485 163.705 38.097C163.094 38.709 162.788 39.984 162.788 41.922V88.587C162.788 90.627 163.094 91.953 163.705 92.565C164.316 93.075 165.59 93.33 167.526 93.33H194.275C196.313 93.33 197.587 93.075 198.097 92.565C198.708 91.953 199.014 90.627 199.014 88.587ZM155.298 28.152H206.503C214.554 28.152 218.579 32.181 218.579 40.239V90.27C218.579 98.328 214.554 102.357 206.503 102.357H155.298C147.248 102.357 143.223 98.328 143.223 90.27V40.239C143.223 32.181 147.248 28.152 155.298 28.152ZM265.003 93.33H290.376C292.312 93.33 293.688 92.973 294.503 92.259C295.318 91.443 295.726 90.117 295.726 88.281V42.228C295.726 40.392 295.318 39.117 294.503 38.403C293.688 37.587 292.312 37.179 290.376 37.179H265.003C262.965 37.179 261.64 37.485 261.028 38.097C260.519 38.709 260.264 39.984 260.264 41.922V88.587C260.264 90.627 260.519 91.953 261.028 92.565C261.64 93.075 262.965 93.33 265.003 93.33ZM295.726 0H315.444V102.357H295.726V97.614C294.503 100.776 291.65 102.357 287.166 102.357H252.622C244.571 102.357 240.546 98.328 240.546 90.27V40.239C240.546 32.181 244.571 28.152 252.622 28.152H287.166C291.65 28.152 294.503 29.733 295.726 32.895V0ZM358.335 59.823H395.784V41.922C395.784 39.984 395.478 38.709 394.867 38.097C394.255 37.485 392.981 37.179 391.045 37.179H363.074C361.035 37.179 359.711 37.485 359.099 38.097C358.59 38.709 358.335 39.984 358.335 41.922V59.823ZM350.693 28.152H402.968C411.018 28.152 415.043 32.181 415.043 40.239V68.85H358.335V88.587C358.335 90.627 358.59 91.953 359.099 92.565C359.711 93.075 361.035 93.33 363.074 93.33H390.74C392.676 93.33 393.949 93.075 394.561 92.565C395.172 91.953 395.478 90.627 395.478 88.587V80.172H414.737V90.27C414.737 98.328 410.712 102.357 402.662 102.357H350.693C342.642 102.357 338.617 98.328 338.617 90.27V40.239C338.617 32.181 342.642 28.152 350.693 28.152ZM470.645 27.999H483.943V37.944H467.129C460.098 37.944 456.583 41.769 456.583 49.419V102.357H436.865V28.152H456.583V37.332C458.519 31.11 463.206 27.999 470.645 27.999ZM546.684 88.74V74.664C546.684 72.726 546.378 71.451 545.767 70.839C545.155 70.227 543.882 69.921 541.946 69.921H507.554C499.504 69.921 495.479 65.892 495.479 57.834V40.239C495.479 32.181 499.504 28.152 507.554 28.152H553.562C561.612 28.152 565.638 32.181 565.638 40.239V49.572H546.378V41.769C546.378 39.729 546.073 38.454 545.461 37.944C544.85 37.332 543.576 37.026 541.64 37.026H519.935C517.999 37.026 516.725 37.332 516.114 37.944C515.502 38.454 515.197 39.729 515.197 41.769V56.151C515.197 58.191 515.502 59.517 516.114 60.129C516.725 60.639 517.999 60.894 519.935 60.894H554.174C562.224 60.894 566.249 64.923 566.249 72.981V90.27C566.249 98.328 562.224 102.357 554.174 102.357H508.013C499.962 102.357 495.937 98.328 495.937 90.27V80.937H515.197V88.74C515.197 90.678 515.502 91.953 516.114 92.565C516.725 93.177 517.999 93.483 519.935 93.483H541.946C543.882 93.483 545.155 93.177 545.767 92.565C546.378 91.953 546.684 90.678 546.684 88.74Z" fill="white"/>
<path d="M589.299 7.191H659.152C667.202 7.191 671.227 11.22 671.227 19.278V45.747C671.227 51.459 668.68 54.468 663.585 54.774C668.68 55.386 671.227 58.344 671.227 63.648V90.27C671.227 98.328 667.202 102.357 659.152 102.357H589.299V7.191ZM651.357 89.046V63.954C651.357 62.016 651.051 60.741 650.439 60.129C649.93 59.517 648.656 59.211 646.618 59.211H609.781V93.33H646.312C648.249 93.33 649.573 93.075 650.287 92.565C651 91.953 651.357 90.78 651.357 89.046ZM651.357 45.441V20.961C651.357 18.921 651.051 17.646 650.439 17.136C649.93 16.524 648.656 16.218 646.618 16.218H609.781V50.184H646.618C648.656 50.184 649.93 49.929 650.439 49.419C651.051 48.807 651.357 47.481 651.357 45.441ZM750.263 88.587V41.922C750.263 39.984 749.958 38.709 749.346 38.097C748.837 37.485 747.563 37.179 745.525 37.179H718.776C716.84 37.179 715.566 37.485 714.955 38.097C714.343 38.709 714.038 39.984 714.038 41.922V88.587C714.038 90.627 714.343 91.953 714.955 92.565C715.566 93.075 716.84 93.33 718.776 93.33H745.525C747.563 93.33 748.837 93.075 749.346 92.565C749.958 91.953 750.263 90.627 750.263 88.587ZM706.548 28.152H757.753C765.803 28.152 769.828 32.181 769.828 40.239V90.27C769.828 98.328 765.803 102.357 757.753 102.357H706.548C698.498 102.357 694.473 98.328 694.473 90.27V40.239C694.473 32.181 698.498 28.152 706.548 28.152ZM816.253 93.33H841.627C843.563 93.33 844.938 92.973 845.753 92.259C846.569 91.443 846.976 90.117 846.976 88.281V42.228C846.976 40.392 846.569 39.117 845.753 38.403C844.938 37.587 843.563 37.179 841.627 37.179H816.253C814.215 37.179 812.891 37.485 812.279 38.097C811.77 38.709 811.515 39.984 811.515 41.922V88.587C811.515 90.627 811.77 91.953 812.279 92.565C812.891 93.075 814.215 93.33 816.253 93.33ZM846.976 28.152H866.694V102.357H846.976V97.614C845.754 100.776 842.9 102.357 838.417 102.357H803.872C795.822 102.357 791.797 98.328 791.797 90.27V40.239C791.797 32.181 795.822 28.152 803.872 28.152H838.417C842.9 28.152 845.754 29.733 846.976 32.895V28.152ZM924.868 27.999H938.166V37.944H921.352C914.321 37.944 910.805 41.769 910.805 49.419V102.357H891.087V28.152H910.805V37.332C912.741 31.11 917.429 27.999 924.868 27.999ZM974.925 93.33H1000.3C1002.23 93.33 1003.61 92.973 1004.43 92.259C1005.24 91.443 1005.65 90.117 1005.65 88.281V42.228C1005.65 40.392 1005.24 39.117 1004.43 38.403C1003.61 37.587 1002.23 37.179 1000.3 37.179H974.925C972.887 37.179 971.562 37.485 970.951 38.097C970.441 38.709 970.187 39.984 970.187 41.922V88.587C970.187 90.627 970.441 91.953 970.951 92.565C971.562 93.075 972.887 93.33 974.925 93.33ZM1005.65 0H1025.37V102.357H1005.65V97.614C1004.43 100.776 1001.57 102.357 997.088 102.357H962.544C954.494 102.357 950.469 98.328 950.469 90.27V40.239C950.469 32.181 954.494 28.152 962.544 28.152H997.088C1001.57 28.152 1004.43 29.733 1005.65 32.895V0Z" fill="#2F54EB"/>
</svg>
