<svg width="363" height="187" viewBox="0 0 363 187" fill="none" xmlns="http://www.w3.org/2000/svg">
<path d="M201.919 0H339.019C354.819 0 362.719 7.9 362.719 23.7V75.6C362.719 86.8 357.719 92.7 347.719 93.3C357.719 94.5 362.719 100.3 362.719 110.7V162.9C362.719 178.7 354.819 186.6 339.019 186.6H201.919V0ZM323.719 160.5V111.3C323.719 107.5 323.119 105 321.919 103.8C320.919 102.6 318.419 102 314.419 102H242.119V168.9H313.819C317.619 168.9 320.219 168.4 321.619 167.4C323.019 166.2 323.719 163.9 323.719 160.5ZM323.719 75V27C323.719 23 323.119 20.5 321.919 19.5C320.919 18.3 318.419 17.7 314.419 17.7H242.119V84.3H314.419C318.419 84.3 320.919 83.8 321.919 82.8C323.119 81.6 323.719 79 323.719 75Z" fill="#2F54EB"/>
<path d="M158.4 64.5H117.9V27C117.9 23 117.3 20.5 116.1 19.5C115.1 18.3 112.6 17.7 108.6 17.7H49.8C45.8 17.7 43.2 18.3 42 19.5C41 20.5 40.5 23 40.5 27V159.6C40.5 163.6 41 166.2 42 167.4C43.2 168.4 45.8 168.9 49.8 168.9H108.6C112.6 168.9 115.1 168.4 116.1 167.4C117.3 166.2 117.9 163.6 117.9 159.6V122.1H158.4V162.9C158.4 178.7 150.5 186.6 134.7 186.6H23.7C7.9 186.6 0 178.7 0 162.9V23.7C0 7.9 7.9 0 23.7 0H134.7C150.5 0 158.4 7.9 158.4 23.7V64.5Z" fill="white"/>
</svg>
